<svg xmlns="http://www.w3.org/2000/svg" viewBox="0 0 100 100"><path fill="#fefdef" d="M72,18c4,0,7,3.134,7,7v10.5V78c0,3.866-3.134,7-7,7H28c-3.866,0-7-3.134-7-7V25c0-3.866,3-7,7-7h17l5-4l5,4H72z"></path><path fill="#ceccbe" d="M34.5 37.5A2 2 0 1 0 34.5 41.5 2 2 0 1 0 34.5 37.5zM34.5 47.5A2 2 0 1 0 34.5 51.5 2 2 0 1 0 34.5 47.5zM34.5 57.5A2 2 0 1 0 34.5 61.5 2 2 0 1 0 34.5 57.5zM34.5 67.5A2 2 0 1 0 34.5 71.5 2 2 0 1 0 34.5 67.5z"></path><path fill="#1f212b" d="M42.5 25h-1c-.276 0-.5-.224-.5-.5s.224-.5.5-.5h1c.276 0 .5.224.5.5S42.776 25 42.5 25zM39.5 25h-3c-.276 0-.5-.224-.5-.5s.224-.5.5-.5h3c.276 0 .5.224.5.5S39.776 25 39.5 25zM71.5 81h-43c-1.93 0-3.5-1.57-3.5-3.5v-50c0-1.93 1.57-3.5 3.5-3.5h5c.276 0 .5.224.5.5S33.776 25 33.5 25h-5c-1.378 0-2.5 1.121-2.5 2.5v50c0 1.379 1.122 2.5 2.5 2.5h43c1.378 0 2.5-1.121 2.5-2.5v-3c0-.276.224-.5.5-.5s.5.224.5.5v3C75 79.43 73.43 81 71.5 81zM74.5 65c-.276 0-.5-.224-.5-.5v-35c0-.276.224-.5.5-.5s.5.224.5.5v35C75 64.776 74.776 65 74.5 65zM67.5 40h-16c-.276 0-.5-.224-.5-.5s.224-.5.5-.5h16c.276 0 .5.224.5.5S67.776 40 67.5 40z"></path><path fill="#1f212b" d="M67.5 50h-26c-.276 0-.5-.224-.5-.5s.224-.5.5-.5h26c.276 0 .5.224.5.5S67.776 50 67.5 50zM67.5 60h-23c-.276 0-.5-.224-.5-.5s.224-.5.5-.5h23c.276 0 .5.224.5.5S67.776 60 67.5 60zM67.5 70h-19c-.276 0-.5-.224-.5-.5s.224-.5.5-.5h19c.276 0 .5.224.5.5S67.776 70 67.5 70zM34.5 42c-1.378 0-2.5-1.121-2.5-2.5s1.122-2.5 2.5-2.5 2.5 1.121 2.5 2.5S35.878 42 34.5 42zM34.5 38c-.827 0-1.5.673-1.5 1.5s.673 1.5 1.5 1.5 1.5-.673 1.5-1.5S35.327 38 34.5 38zM34.5 52c-1.378 0-2.5-1.121-2.5-2.5s1.122-2.5 2.5-2.5 2.5 1.121 2.5 2.5S35.878 52 34.5 52zM34.5 48c-.827 0-1.5.673-1.5 1.5s.673 1.5 1.5 1.5 1.5-.673 1.5-1.5S35.327 48 34.5 48zM34.5 62c-1.378 0-2.5-1.121-2.5-2.5s1.122-2.5 2.5-2.5 2.5 1.121 2.5 2.5S35.878 62 34.5 62zM34.5 58c-.827 0-1.5.673-1.5 1.5s.673 1.5 1.5 1.5 1.5-.673 1.5-1.5S35.327 58 34.5 58zM34.5 72c-1.378 0-2.5-1.121-2.5-2.5s1.122-2.5 2.5-2.5 2.5 1.121 2.5 2.5S35.878 72 34.5 72zM34.5 68c-.827 0-1.5.673-1.5 1.5s.673 1.5 1.5 1.5 1.5-.673 1.5-1.5S35.327 68 34.5 68z"></path><path fill="#1f212b" d="M72,19H61h-3.47h-1.07l-5.701-6.65c-0.38-0.443-1.139-0.443-1.519,0L43.54,19H40H28c-4.41,0-8,3.59-8,8v51c0,4.41,3.59,8,8,8h44c4.41,0,8-3.59,8-8V27C80,22.59,76.41,19,72,19z M78,78c0,3.31-2.69,6-6,6H28c-3.31,0-6-2.69-6-6V27c0-3.31,2.69-6,6-6h12h3.6H44c0.292,0,0.569-0.128,0.759-0.35L50,14.536l5.241,6.114C55.431,20.872,55.708,21,56,21h1.53H61h11c3.31,0,6,2.69,6,6V78z"></path></svg>